<?xml version="1.0" encoding="UTF-8"?>
<svg width="28" height="28" viewBox="12 10 172 95" xmlns="http://www.w3.org/2000/svg" aria-hidden="true">
  <path d="M 66.24,97.625 H 21.86 c -1.33,0 -2.6,-0.53 -3.54,-1.46 a 5.05,5.05 0 0 1 -1.46,-3.54 v -72.94 c 0,-1.33 0.53,-2.6 1.46,-3.54 0.94,-0.93 2.21,-1.46 3.54,-1.46 h 153.38 c 1.33,0 2.6,0.53 3.54,1.46 0.94,0.94 1.46,2.21 1.46,3.54 v 38.94" fill="none" stroke="#000" stroke-width="4" stroke-linecap="butt" stroke-linejoin="miter" stroke-miterlimit="10"/>
  <path d="m 97.585903,81.143234 q 0,4.343163 -1.408619,7.591354 -1.369152,3.207882 -4.382589,5.007112 -2.973093,1.801107 -7.785782,1.801107 -4.695341,0 -7.708766,-1.800185 Q 73.287617,91.94247 71.839589,88.695156 70.431,85.447865 70.431,81.104718 q 0,-4.343175 1.448032,-7.551961 1.448026,-3.24728 4.460559,-5.008036 3.012518,-1.760721 7.707832,-1.760721 4.774179,0 7.747272,1.799264 3.013437,1.760722 4.382589,5.00893 1.408619,3.207857 1.408619,7.55104 z m -19.212305,0 q 0,3.795686 1.292146,5.947999 1.329715,2.1514 4.343169,2.1514 3.129914,0 4.381689,-2.1514 1.252676,-2.152313 1.252676,-5.947999 0,-3.794769 -1.252676,-5.986531 -1.251775,-2.191761 -4.343179,-2.191761 -3.090473,0 -4.381679,2.191761 -1.291218,2.191762 -1.291218,5.986531 z M 115.42808,73.12265 q 3.59937,0 5.63447,2.895154 2.03491,2.85662 2.03491,8.256254 0,3.677363 -1.05645,6.221284 -1.01802,2.503551 -2.81728,3.794768 -1.7606,1.252697 -4.03049,1.252697 -2.26971,0 -3.56077,-0.82167 -1.2519,-0.821701 -1.95628,-1.682801 h -0.23448 q 0.0789,0.742795 0.15578,1.604831 0.0797,0.86021 0.0797,1.99469 V 104.5418 H 102.202 V 73.513331 h 6.06547 l 1.0565,2.739232 h 0.35205 q 0.78251,-1.251775 2.113,-2.191756 1.36914,-0.938157 3.63888,-0.938157 z m -2.8171,5.869147 q -1.64345,0 -2.26978,1.173842 -0.587,1.173841 -0.66501,3.482067 v 0.586922 q 0,2.582424 0.6264,3.952471 0.62543,1.329754 2.34783,1.329754 1.4086,0 2.11275,-1.213267 0.74307,-1.251786 0.74307,-4.108396 0,-2.85571 -0.74307,-4.029551 -0.74363,-1.173842 -2.15219,-1.173842 z m 24.49435,-5.869147 q 4.73392,0 7.47302,2.465054 2.73851,2.465042 2.73851,7.433651 v 3.326156 h -13.34231 q 0.0787,1.682778 1.2519,2.778667 1.21327,1.094971 3.48276,1.094971 2.03411,0 3.71688,-0.391595 1.68294,-0.390676 3.48221,-1.25178 v 5.360199 q -1.56438,0.821674 -3.44265,1.213244 -1.83955,0.39159 -4.65689,0.39159 -3.28676,0 -5.86919,-1.13532 -2.54287,-1.173831 -4.02943,-3.638859 -1.48762,-2.465042 -1.48762,-6.300168 0,-3.912146 1.33084,-6.415714 1.36911,-2.504475 3.75615,-3.717719 2.4256,-1.212377 5.59488,-1.212377 z m 0.27328,5.085987 q -1.32958,0 -2.23016,0.821703 -0.86129,0.821676 -1.018,2.621862 h 6.41748 q -0.0397,-1.448027 -0.86091,-2.425616 -0.78253,-1.017949 -2.30841,-1.017949 z m 27.70253,-5.085987 q 3.36553,0 5.47758,1.878138 2.11278,1.878132 2.11278,6.064499 v 14.08593 h -7.47304 V 83.334978 q 0,-2.15232 -0.62644,-3.248209 -0.62544,-1.094972 -1.99544,-1.094972 -2.11276,0 -2.85577,1.721324 -0.70411,1.721324 -0.70411,4.969526 v 9.46857 h -7.47408 V 73.513331 h 5.63432 l 1.01799,2.856639 h 0.27305 q 1.01799,-1.525996 2.66144,-2.387102 1.68205,-0.860218 3.95172,-0.860218 z" fill="#00bfff"/>
</svg>
