<?xml version="1.0" encoding="UTF-8" standalone="no"?>
<svg
   width="412"
   height="120"
   viewBox="0 0 412 120"
   version="1.1"
   id="svg1"
   xmlns="http://www.w3.org/2000/svg"
   xmlns:svg="http://www.w3.org/2000/svg">
  <defs
     id="defs1" />
  <path
     id="outline"
     d="M 66.24,97.625 H 21.86 c -1.33,0 -2.6,-0.53 -3.54,-1.46 a 5.05,5.05 0 0 1 -1.46,-3.54 v -72.94 c 0,-1.33 0.53,-2.6 1.46,-3.54 0.94,-0.93 2.21,-1.46 3.54,-1.46 h 153.38 c 1.33,0 2.6,0.53 3.54,1.46 0.94,0.94 1.46,2.21 1.46,3.54 v 38.94"
     style="display:inline;fill:none;stroke:#FFF;stroke-width:4;stroke-linecap:butt;stroke-linejoin:miter;stroke-miterlimit:10;stroke-dasharray:none;stroke-opacity:1" />
  <path
     id="t1"
     d="m 97.585903,81.143234 q 0,4.343163 -1.408619,7.591354 -1.369152,3.207882 -4.382589,5.007112 -2.973093,1.801107 -7.785782,1.801107 -4.695341,0 -7.708766,-1.800185 Q 73.287617,91.94247 71.839589,88.695156 70.431,85.447865 70.431,81.104718 q 0,-4.343175 1.448032,-7.551961 1.448026,-3.24728 4.460559,-5.008036 3.012518,-1.760721 7.707832,-1.760721 4.774179,0 7.747272,1.799264 3.013437,1.760722 4.382589,5.00893 1.408619,3.207857 1.408619,7.55104 z m -19.212305,0 q 0,3.795686 1.292146,5.947999 1.329715,2.1514 4.343169,2.1514 3.129914,0 4.381689,-2.1514 1.252676,-2.152313 1.252676,-5.947999 0,-3.794769 -1.252676,-5.986531 -1.251775,-2.191761 -4.343179,-2.191761 -3.090473,0 -4.381679,2.191761 -1.291218,2.191762 -1.291218,5.986531 z M 115.42808,73.12265 q 3.59937,0 5.63447,2.895154 2.03491,2.85662 2.03491,8.256254 0,3.677363 -1.05645,6.221284 -1.01802,2.503551 -2.81728,3.794768 -1.7606,1.252697 -4.03049,1.252697 -2.26971,0 -3.56077,-0.82167 -1.2519,-0.821701 -1.95628,-1.682801 h -0.23448 q 0.0789,0.742795 0.15578,1.604831 0.0797,0.86021 0.0797,1.99469 V 104.5418 H 102.202 V 73.513331 h 6.06547 l 1.0565,2.739232 h 0.35205 q 0.78251,-1.251775 2.113,-2.191756 1.36914,-0.938157 3.63888,-0.938157 z m -2.8171,5.869147 q -1.64345,0 -2.26978,1.173842 -0.587,1.173841 -0.66501,3.482067 v 0.586922 q 0,2.582424 0.6264,3.952471 0.62543,1.329754 2.34783,1.329754 1.4086,0 2.11275,-1.213267 0.74307,-1.251786 0.74307,-4.108396 0,-2.85571 -0.74307,-4.029551 -0.74363,-1.173842 -2.15219,-1.173842 z m 24.49435,-5.869147 q 4.73392,0 7.47302,2.465054 2.73851,2.465042 2.73851,7.433651 v 3.326156 h -13.34231 q 0.0787,1.682778 1.2519,2.778667 1.21327,1.094971 3.48276,1.094971 2.03411,0 3.71688,-0.391595 1.68294,-0.390676 3.48221,-1.25178 v 5.360199 q -1.56438,0.821674 -3.44265,1.213244 -1.83955,0.39159 -4.65689,0.39159 -3.28676,0 -5.86919,-1.13532 -2.54287,-1.173831 -4.02943,-3.638859 -1.48762,-2.465042 -1.48762,-6.300168 0,-3.912146 1.33084,-6.415714 1.36911,-2.504475 3.75615,-3.717719 2.4256,-1.212377 5.59488,-1.212377 z m 0.27328,5.085987 q -1.32958,0 -2.23016,0.821703 -0.86129,0.821676 -1.018,2.621862 h 6.41748 q -0.0397,-1.448027 -0.86091,-2.425616 -0.78253,-1.017949 -2.30841,-1.017949 z m 27.70253,-5.085987 q 3.36553,0 5.47758,1.878138 2.11278,1.878132 2.11278,6.064499 v 14.08593 h -7.47304 V 83.334978 q 0,-2.15232 -0.62644,-3.248209 -0.62544,-1.094972 -1.99544,-1.094972 -2.11276,0 -2.85577,1.721324 -0.70411,1.721324 -0.70411,4.969526 v 9.46857 h -7.47408 V 73.513331 h 5.63432 l 1.01799,2.856639 h 0.27305 q 1.01799,-1.525996 2.66144,-2.387102 1.68205,-0.860218 3.95172,-0.860218 z"
     style="fill:#00bfff;stroke-width:0.917049" />
  <path
     id="t2"
     d="m 201.94574,80.650166 q 0,4.851239 -1.83865,8.09942 -1.80016,3.247317 -5.08691,4.851229 -3.28691,1.604835 -7.7474,1.604835 h -9.03846 V 67.268539 h 9.66473 q 6.76895,0 10.40881,3.442608 3.63788,3.443531 3.63788,9.939019 z m -7.82514,0.273298 q 0,-7.551029 -6.14347,-7.551029 h -2.19077 v 15.650441 h 1.68294 q 3.44232,0 5.04708,-1.995506 1.60422,-1.995511 1.60422,-6.103906 z M 210.31927,64.842 q 1.60482,0 2.7786,0.665777 1.21233,0.664872 1.21233,2.660376 0,1.916641 -1.21321,2.621856 -1.17383,0.664855 -2.77772,0.664855 -1.64339,0 -2.81716,-0.664855 -1.13432,-0.704291 -1.13432,-2.621856 0,-1.995504 1.13432,-2.660376 1.17377,-0.665777 2.81716,-0.665777 z m 3.71694,8.725763 V 95.20565 h -7.47308 V 73.567763 Z m 21.28571,14.985574 q 0,2.034947 -0.93913,3.638877 -0.89965,1.604841 -2.93464,2.504491 -1.9955,0.899615 -5.28204,0.899615 -2.30826,0 -4.14799,-0.27326 -1.79922,-0.23479 -3.67743,-0.939078 v -5.986538 q 2.0736,0.939056 4.18656,1.369173 2.11275,0.391585 3.32602,0.391585 2.4256,0 2.4256,-1.095896 0,-0.469533 -0.39156,-0.821663 -0.39076,-0.352166 -1.40854,-0.782272 -0.97762,-0.431001 -2.81719,-1.173807 -2.69995,-1.135321 -4.02968,-2.582425 -1.32948,-1.487457 -1.32948,-4.14785 0,-3.169317 2.42466,-4.77327 2.4648,-1.604825 6.49524,-1.604825 2.15255,0 4.03049,0.469504 1.87827,0.469542 3.91215,1.370086 l -2.03388,4.812719 q -1.60486,-0.74373 -3.24831,-1.17383 -1.6434,-0.431003 -2.62095,-0.431003 -1.83966,0 -1.83966,0.900536 0,0.390639 0.31383,0.704297 0.352,0.312699 1.29106,0.704297 0.93921,0.390664 2.73844,1.134397 1.878,0.742802 3.0912,1.643345 1.25184,0.861106 1.83877,2.112888 0.62646,1.213265 0.62646,3.129907 z m 17.37265,-15.377143 q 3.59933,0 5.63431,2.896043 2.03501,2.855722 2.03501,8.255332 0,3.678285 -1.05651,6.221278 -1.018,2.504479 -2.8172,3.795696 -1.76073,1.251777 -4.03043,1.251777 -2.26955,0 -3.56084,-0.82167 -1.25188,-0.821679 -1.95604,-1.681881 h -0.23477 q 0.0787,0.742795 0.15571,1.603936 0.0797,0.861105 0.0797,1.995465 v 7.90415 h -7.47433 V 73.567763 h 6.06543 l 1.05625,2.739233 h 0.35234 q 0.78221,-1.252674 2.11273,-2.191756 1.36916,-0.939046 3.63898,-0.939046 z m -2.81714,5.869147 q -1.6435,0 -2.2699,1.17383 -0.58682,1.173813 -0.66466,3.482968 v 0.586917 q 0,2.582429 0.62645,3.951587 0.6251,1.329721 2.3475,1.329721 1.40854,0 2.11274,-1.212345 0.74301,-1.251787 0.74301,-4.108397 0,-2.856638 -0.74301,-4.030451 -0.74264,-1.17383 -2.15213,-1.17383 z m 22.22476,16.160299 h -7.47394 V 65.468353 h 7.47394 z m 15.72928,-22.029446 q 4.10859,0 6.41669,2.034942 2.30821,2.034942 2.30821,5.791202 V 95.20564 h -5.16491 l -1.44724,-2.856611 h -0.15578 q -0.90043,1.134399 -1.87881,1.878132 -0.93926,0.704289 -2.19206,1.017919 -1.25154,0.35124 -3.05103,0.35124 -2.81723,0 -4.69516,-1.721319 -1.87815,-1.721289 -1.87815,-5.282228 0,-3.482043 2.38604,-5.164853 2.42655,-1.682787 7.0047,-1.878093 l 3.59939,-0.117413 V 81.11972 q 0,-1.448032 -0.70447,-2.034947 -0.70415,-0.62635 -1.91648,-0.62635 -1.29214,0 -2.85665,0.469536 -1.56538,0.431001 -3.16928,1.135297 l -2.15254,-4.930066 q 1.8782,-0.978512 4.22582,-1.448048 2.38704,-0.508948 5.32171,-0.508948 z m -0.43112,12.442588 q -2.03389,0.07897 -2.89511,0.743723 -0.82171,0.626346 -0.82171,1.800186 0,1.094938 0.58713,1.643351 0.58686,0.508039 1.56536,0.508039 1.36911,0 2.30804,-0.860172 0.97844,-0.861136 0.97844,-2.230288 v -1.682785 z m 11.6209,-12.051019 h 7.86464 l 3.67837,12.40315 q 0.11758,0.391592 0.19534,1.056457 0.11751,0.665784 0.15676,1.291219 h 0.15608 q 0.0796,-0.782249 0.19629,-1.329738 0.1558,-0.586909 0.27403,-0.978508 l 3.75639,-12.44258 h 7.62987 l -8.5691,23.007117 q -0.97845,2.62193 -2.30898,4.4211 -1.29134,1.80017 -3.20784,2.69966 -1.91677,0.90068 -4.77437,0.90068 -1.01705,0 -1.7606,-0.11751 -0.74277,-0.0801 -1.2911,-0.19628 V 98.4136 q 0.43077,0.0794 1.01765,0.15681 0.62544,0.0778 1.29135,0.0778 1.83878,0 2.69987,-1.09482 0.89949,-1.0565 1.44722,-2.4651 l 0.0796,-0.19623 z M 323.00672,92.0363 q 0,-2.034935 1.17412,-2.856611 1.21323,-0.82167 2.89499,-0.82167 1.60482,0 2.73937,0.82167 1.17371,0.821676 1.17371,2.856611 0,1.916671 -1.17371,2.77777 -1.13455,0.86112 -2.73937,0.86112 -1.68176,0 -2.89499,-0.86112 -1.17412,-0.861099 -1.17412,-2.778659 z m 32.90678,-7.708731 q 0,5.439048 -2.89591,8.373626 -2.89534,2.895125 -7.94188,2.895125 -3.1306,0 -5.55714,-1.291215 -2.42561,-1.329726 -3.83327,-3.834203 -1.37034,-2.542988 -1.37034,-6.143333 0,-5.36018 2.89529,-8.255332 2.8952,-2.896043 7.98184,-2.896043 3.13017,0 5.51715,1.291202 2.42566,1.291223 3.79565,3.795675 1.40861,2.465053 1.40861,6.064498 z m -14.00788,0 q 0,2.778663 0.74277,4.265204 0.7436,1.448023 2.50456,1.448023 1.72209,0 2.42648,-1.448023 0.74283,-1.486541 0.74283,-4.264282 0,-2.778664 -0.74283,-4.187289 -0.70439,-1.408589 -2.46504,-1.408589 -1.6829,0 -2.46505,1.408589 -0.74274,1.408625 -0.74274,4.186367 z m 31.34105,-11.151375 q 0.62639,0 1.29139,0.07899 0.6649,0.07803 0.97849,0.155896 l -0.66594,7.042974 q -0.39061,-0.07804 -0.97755,-0.155914 -0.54833,-0.07877 -1.56544,-0.07877 -0.93887,0 -2.03489,0.274191 -1.0565,0.274189 -1.83865,1.213261 -0.78223,0.899627 -0.78223,2.855699 V 95.20583 h -7.47403 V 73.567762 h 5.55749 l 1.1738,3.443532 h 0.35121 q 0.89972,-1.604836 2.50359,-2.699802 1.64405,-1.135299 3.48276,-1.135298 z m 11.81642,0 q 2.26976,0 3.63892,0.90055 1.40856,0.860172 2.2697,2.151387 h 0.15584 l 0.54834,-2.660368 h 6.45609 V 95.24419 q 0,4.57803 -2.85666,6.96507 -2.81722,2.38706 -8.68641,2.38706 -2.62089,0 -4.61633,-0.27434 -1.99554,-0.27399 -3.83521,-0.97831 v -6.22132 q 1.95694,0.82163 3.7179,1.21327 1.76076,0.43102 4.30358,0.43102 4.49994,0 4.49994,-3.20976 v -0.39066 q 0,-1.134382 0.23489,-2.699813 h -0.23489 q -0.74263,1.291217 -2.11261,2.230298 -1.37033,0.899615 -3.60061,0.899615 -3.44265,0 -5.59391,-2.855694 -2.15321,-2.856639 -2.15321,-8.334188 0,-5.478479 2.19165,-8.334201 2.1917,-2.896043 5.67299,-2.896043 z m 2.81721,5.791195 q -3.09061,0 -3.09061,5.556431 0,2.817174 0.78222,4.068953 0.78221,1.213269 2.42567,1.213269 1.83964,0 2.54404,-1.135293 0.70416,-1.173842 0.70416,-3.482067 v -0.899626 q 0,-2.543923 -0.70416,-3.913071 -0.66584,-1.408596 -2.66132,-1.408596 z"
     style="fill:#FFF;stroke-width:0.917049" />
</svg>
