<?xml version="1.0" encoding="UTF-8" standalone="no"?>
<svg
   width="200"
   height="200"
   viewBox="0 0 200 200"
   version="1.1"
   id="svg1"
   xmlns="http://www.w3.org/2000/svg"
   xmlns:svg="http://www.w3.org/2000/svg">
  <defs
     id="defs1" />
  <g
     id="con"
     style="fill:#00bfff;fill-opacity:1"
     transform="translate(1.9995019,1.9999487)">
    <path
       id="c1"
       d="m 463.46,135.93 c -5.7,0 -11.41,-2.18 -15.76,-6.53 C 421.19,102.88 390.24,82.04 355.71,67.43 319.84,52.25 281.88,44.56 242.87,44.56 c -39,0 -76.96,7.7 -112.84,22.87 -34.52,14.6 -65.47,35.45 -92,61.97 -8.7,8.7 -22.81,8.7 -31.51,0 -8.7,-8.7 -8.7,-22.81 0,-31.51 C 37.14,67.29 72.85,43.23 112.68,26.39 154.07,8.88 197.88,0 242.87,0 c 45,0 88.81,8.88 130.2,26.39 39.84,16.85 75.55,40.91 106.14,71.5 8.7,8.7 8.7,22.81 0,31.51 a 22.199,22.199 0 0 1 -15.75,6.52"
       style="display:inline;fill-opacity:1;fill-rule:nonzero;stroke:none"
       transform="matrix(-0.07311484,0.07311484,-0.07311484,-0.07311484,186.82698,108.43673)" />
    <path
       id="c2"
       d="m 397.79,201.6 c -5.7,0 -11.4,-2.18 -15.75,-6.52 -18.02,-18.02 -39.05,-32.19 -62.51,-42.11 -24.36,-10.3 -50.16,-15.53 -76.66,-15.53 -26.5,0 -52.29,5.23 -76.66,15.53 -23.46,9.93 -44.49,24.09 -62.5,42.11 -8.7,8.7 -22.81,8.7 -31.51,0 -8.7,-8.7 -8.7,-22.81 0,-31.51 22.1,-22.09 47.89,-39.47 76.65,-51.64 29.89,-12.64 61.53,-19.05 94.02,-19.05 32.5,0 64.12,6.41 94.02,19.05 28.77,12.18 54.56,29.55 76.66,51.64 8.7,8.7 8.7,22.81 0,31.51 -4.35,4.35 -10.05,6.52 -15.76,6.52"
       style="display:inline;fill-opacity:1;fill-rule:nonzero;stroke:none"
       transform="matrix(-0.07311484,0.07311484,-0.07311484,-0.07311484,186.82698,108.43673)" />
    <path
       id="c3"
       d="m 332.12,267.28 c -5.71,0 -11.41,-2.18 -15.76,-6.53 -9.52,-9.52 -20.62,-17 -33.01,-22.24 -12.86,-5.44 -26.48,-8.2 -40.48,-8.2 -14,0 -27.62,2.76 -40.48,8.2 a 103.403,103.403 0 0 0 -33,22.24 c -8.7,8.7 -22.81,8.71 -31.51,0.01 -8.7,-8.7 -8.7,-22.81 0,-31.51 13.6,-13.6 29.46,-24.29 47.16,-31.78 18.38,-7.77 37.84,-11.71 57.84,-11.71 20,0 39.45,3.94 57.84,11.71 17.7,7.49 33.57,18.18 47.17,31.78 8.7,8.7 8.7,22.81 -0.01,31.51 a 22.199,22.199 0 0 1 -15.75,6.52"
       style="display:inline;fill-opacity:1;fill-rule:nonzero;stroke:none"
       transform="matrix(-0.07311484,0.07311484,-0.07311484,-0.07311484,186.82698,108.43673)" />
    <path
       id="c4"
       d="m 291.37,327.12 c 0,13.38 -5.44,25.5 -14.22,34.28 -8.78,8.79 -20.91,14.22 -34.28,14.22 -13.38,0 -25.5,-5.44 -34.28,-14.22 -8.78,-8.78 -14.22,-20.9 -14.22,-34.28 0,-13.37 5.44,-25.5 14.22,-34.28 8.78,-8.79 20.91,-14.23 34.28,-14.23 13.37,0 25.5,5.44 34.28,14.23 8.79,8.78 14.22,20.91 14.22,34.28"
       style="fill-opacity:1;fill-rule:nonzero;stroke:none"
       transform="matrix(-0.07311484,0.07311484,-0.07311484,-0.07311484,186.82698,108.43673)" />
  </g>
  <g
     id="text"
     style="fill:#000000;fill-opacity:1;stroke:none;stroke-opacity:1"
     transform="translate(0.505,-2.875)">
    <path
       id="t1"
       d="m 161.95,79.46 v -1.92 h 2.48 q 0.67,0 1.02,-0.34 0.37,-0.34 0.37,-0.93 v -0.34 l 0.02,-1.31 q -0.32,0.7 -0.91,1.09 -0.59,0.38 -1.41,0.38 -1.33,0 -2.13,-0.93 -0.8,-0.93 -0.8,-2.51 v -1.6 q 0,-1.57 0.8,-2.5 0.8,-0.94 2.13,-0.94 0.83,0 1.42,0.4 0.59,0.38 0.91,1.09 v -1.33 h 2.32 v 8.58 q 0,1.44 -0.99,2.27 -0.98,0.83 -2.67,0.83 z m 2.43,-5.44 q 0.66,0 1.02,-0.37 0.37,-0.38 0.37,-1.07 v -1.44 q 0,-0.69 -0.37,-1.06 -0.37,-0.38 -1.02,-0.38 -0.67,0 -1.04,0.38 -0.35,0.37 -0.35,1.06 v 1.44 q 0,0.69 0.35,1.07 0.37,0.37 1.04,0.37 z" />
    <path
       id="t2"
       d="m 151.41,76.58 v -8.8 h 2.32 v 1.66 q 0.19,-0.85 0.83,-1.33 0.66,-0.5 1.63,-0.5 1.33,0 2.08,0.9 0.75,0.9 0.75,2.46 v 0.88 h -2.4 v -0.72 q 0,-0.69 -0.37,-1.06 -0.37,-0.38 -1.04,-0.38 -0.67,0 -1.04,0.43 -0.37,0.42 -0.37,1.2 v 5.25 z" />
    <path
       id="t3"
       d="m 145.23,76.74 q -1.17,0 -2.03,-0.43 -0.86,-0.45 -1.34,-1.23 -0.46,-0.8 -0.46,-1.86 v -2.08 q 0,-1.06 0.46,-1.84 0.48,-0.8 1.34,-1.23 0.86,-0.45 2.03,-0.45 1.18,0 2.03,0.45 0.86,0.43 1.33,1.23 0.48,0.78 0.48,1.84 v 2.08 q 0,1.06 -0.48,1.86 -0.46,0.78 -1.33,1.23 -0.85,0.43 -2.03,0.43 z m 0,-2.08 q 0.7,0 1.07,-0.37 0.37,-0.38 0.37,-1.07 v -2.08 q 0,-0.7 -0.37,-1.07 -0.37,-0.37 -1.07,-0.37 -0.69,0 -1.07,0.37 -0.37,0.37 -0.37,1.07 v 2.08 q 0,0.69 0.37,1.07 0.38,0.37 1.07,0.37 z" />
    <path
       id="t4"
       d="m 135.63,76.74 q -0.72,0 -1.17,-0.45 -0.45,-0.45 -0.45,-1.17 0,-0.72 0.45,-1.17 0.45,-0.45 1.17,-0.45 0.72,0 1.17,0.45 0.45,0.45 0.45,1.17 0,0.72 -0.45,1.17 -0.45,0.45 -1.17,0.45 z" />
    <path
       id="t5"
       d="m 123.73,79.46 1.2,-3.31 -3.31,-8.37 h 2.5 l 1.42,3.84 q 0.16,0.43 0.32,0.99 0.18,0.56 0.24,1.06 0.06,-0.5 0.21,-1.06 0.14,-0.56 0.3,-0.99 l 1.33,-3.84 h 2.51 l -4.21,11.68 z" />
    <path
       id="t6"
       d="m 115.3,76.74 q -1.31,0 -2.08,-0.75 -0.77,-0.77 -0.77,-2 0,-1.33 0.94,-2.1 0.94,-0.77 2.66,-0.77 h 1.73 v -0.56 q 0,-0.5 -0.35,-0.77 -0.34,-0.29 -0.98,-0.29 -0.61,0 -0.98,0.24 -0.35,0.24 -0.38,0.7 h -2.27 q 0.05,-1.3 1.02,-2.06 0.98,-0.77 2.64,-0.77 1.74,0 2.72,0.8 0.98,0.8 0.98,2.24 v 5.92 h -2.32 v -1.52 q -0.16,0.78 -0.85,1.23 -0.67,0.45 -1.71,0.45 z m 0.85,-1.92 q 0.75,0 1.18,-0.37 0.45,-0.38 0.45,-0.99 v -0.9 h -1.68 q -0.64,0 -0.99,0.32 -0.34,0.3 -0.34,0.8 0,0.5 0.35,0.82 0.37,0.32 1.02,0.32 z" />
    <path
       id="t7"
       d="m 108.36,76.58 q -0.93,0 -1.63,-0.38 -0.7,-0.4 -1.1,-1.1 -0.38,-0.7 -0.38,-1.63 v -6.4 h -2.8 v -2.16 h 5.2 v 8.48 q 0,0.46 0.26,0.75 0.27,0.29 0.7,0.29 h 2.48 v 2.16 z" />
    <path
       id="t8"
       d="M 93.49,79.46 V 67.78 h 2.32 v 1.6 q 0.29,-0.83 0.91,-1.3 0.62,-0.46 1.5,-0.46 0.85,0 1.49,0.45 0.64,0.43 0.99,1.2 0.37,0.77 0.37,1.79 v 2.24 q 0,1.01 -0.37,1.79 -0.35,0.77 -0.99,1.22 -0.64,0.43 -1.49,0.43 -0.86,0 -1.49,-0.45 -0.62,-0.46 -0.91,-1.28 l 0.06,2.05 v 2.4 z m 3.81,-4.8 q 0.66,0 1.01,-0.37 0.37,-0.38 0.37,-1.07 v -2.08 q 0,-0.7 -0.37,-1.07 -0.35,-0.37 -1.01,-0.37 -0.69,0 -1.06,0.4 -0.35,0.38 -0.35,1.12 v 1.92 q 0,0.74 0.35,1.14 0.37,0.38 1.06,0.38 z" />
    <path
       id="t9"
       d="m 87.27,76.74 q -1.09,0 -1.9,-0.34 -0.82,-0.35 -1.28,-0.96 -0.45,-0.61 -0.45,-1.42 h 2.35 q 0,0.45 0.34,0.67 0.34,0.22 0.94,0.22 h 0.7 q 0.66,0 1.01,-0.22 0.37,-0.22 0.37,-0.64 0,-0.4 -0.29,-0.58 -0.29,-0.19 -0.88,-0.26 l -2.02,-0.24 q -1.17,-0.14 -1.79,-0.86 -0.62,-0.74 -0.62,-1.82 0,-2.67 3.42,-2.67 h 0.75 q 1.62,0 2.58,0.7 0.96,0.7 0.96,1.89 h -2.35 q 0,-0.38 -0.32,-0.59 -0.3,-0.21 -0.86,-0.21 h -0.75 q -0.56,0 -0.85,0.21 -0.29,0.21 -0.29,0.58 0,0.37 0.27,0.5 0.29,0.13 0.8,0.19 l 1.92,0.24 q 1.3,0.16 1.95,0.91 0.66,0.75 0.66,1.98 0,1.3 -0.93,2.02 -0.93,0.7 -2.74,0.7 z" />
    <path
       id="t10"
       d="m 78.36,66.39 q -0.66,0 -1.06,-0.34 -0.38,-0.34 -0.38,-0.91 0,-0.58 0.38,-0.91 0.4,-0.34 1.06,-0.34 0.66,0 1.04,0.34 0.4,0.34 0.4,0.91 0,0.58 -0.4,0.91 -0.38,0.34 -1.04,0.34 z" />
    <path
       id="t11"
       d="m 74.36,76.58 v -2.16 h 2.91 v -4.48 h -2.59 v -2.16 h 4.99 v 6.64 h 2.53 v 2.16 z" />
    <path
       id="t12"
       d="M 64.65,76.58 V 64.9 h 3.79 q 1.22,0 2.11,0.46 0.91,0.46 1.41,1.31 0.51,0.83 0.51,1.97 v 4.18 q 0,1.12 -0.51,1.97 -0.5,0.85 -1.41,1.33 -0.9,0.46 -2.11,0.46 z m 2.4,-2.16 h 1.39 q 0.72,0 1.17,-0.45 0.46,-0.45 0.46,-1.15 v -4.18 q 0,-0.7 -0.46,-1.14 -0.45,-0.45 -1.17,-0.45 h -1.39 z" />
    <path
       id="t13"
       d="m 55.1,76.58 v -8.8 h 2.32 v 1.6 q 0.19,-0.8 0.82,-1.28 0.64,-0.48 1.55,-0.48 1.28,0 2.05,0.9 0.78,0.9 0.78,2.38 v 5.68 h -2.4 v -5.44 q 0,-0.69 -0.37,-1.06 -0.35,-0.38 -0.99,-0.38 -0.64,0 -1.01,0.38 -0.35,0.37 -0.35,1.06 v 5.44 z" />
    <path
       id="t14"
       d="m 49.26,76.74 q -1.17,0 -2.05,-0.43 -0.86,-0.45 -1.34,-1.23 -0.46,-0.8 -0.46,-1.86 v -2.08 q 0,-1.06 0.46,-1.84 0.48,-0.8 1.34,-1.23 0.88,-0.45 2.05,-0.45 1.17,0 2.02,0.45 0.86,0.43 1.33,1.23 0.48,0.78 0.48,1.84 v 1.63 H 47.7 v 0.45 q 0,0.83 0.38,1.22 0.4,0.38 1.18,0.38 0.51,0 0.9,-0.16 0.38,-0.16 0.45,-0.48 h 2.35 q -0.26,1.15 -1.26,1.86 -1.01,0.7 -2.43,0.7 z m -1.57,-5.6 v 0.21 l 3.1,-0.03 v -0.21 q 0,-0.82 -0.38,-1.26 -0.37,-0.45 -1.15,-0.45 -0.78,0 -1.18,0.46 -0.38,0.46 -0.38,1.28 z" />
    <path
       id="t15"
       d="M 35.9,79.46 V 67.78 h 2.32 v 1.6 q 0.29,-0.83 0.91,-1.3 0.62,-0.46 1.5,-0.46 0.85,0 1.49,0.45 0.64,0.43 0.99,1.2 0.37,0.77 0.37,1.79 v 2.24 q 0,1.01 -0.37,1.79 -0.35,0.77 -0.99,1.22 -0.64,0.43 -1.49,0.43 -0.86,0 -1.49,-0.45 -0.62,-0.46 -0.91,-1.28 l 0.06,2.05 v 2.4 z m 3.81,-4.8 q 0.66,0 1.01,-0.37 0.37,-0.38 0.37,-1.07 v -2.08 q 0,-0.7 -0.37,-1.07 -0.35,-0.37 -1.01,-0.37 -0.69,0 -1.06,0.4 -0.35,0.38 -0.35,1.12 v 1.92 q 0,0.74 0.35,1.14 0.37,0.38 1.06,0.38 z" />
    <path
       id="t16"
       d="m 30.04,76.74 q -1.76,0 -2.8,-0.99 -1.04,-0.99 -1.04,-2.69 v -4.64 q 0,-1.71 1.04,-2.69 1.04,-0.99 2.8,-0.99 1.76,0 2.8,0.99 1.04,0.98 1.04,2.69 v 4.64 q 0,1.7 -1.04,2.69 -1.04,0.99 -2.8,0.99 z m 0,-2.08 q 1.44,0 1.44,-1.44 v -4.96 q 0,-1.44 -1.44,-1.44 -1.44,0 -1.44,1.44 v 4.96 q 0,1.44 1.44,1.44 z" />
  </g>
  <path
     id="outline"
     d="M125.4 136.28H21.02c-1.33 0-2.6-.53-3.54-1.46A5.05 5.05 0 0 1 16.02 131.28V58.34c0-1.33.53-2.6 1.46-3.54C18.42 53.87 19.69 53.34 21.02 53.34h153.38c1.33 0 2.6.53 3.54 1.46.94.94 1.46 2.21 1.46 3.54v23.94"
     style="display:inline;fill:none;stroke:#000;stroke-width:4;stroke-linecap:butt;stroke-linejoin:miter;stroke-miterlimit:10;stroke-dasharray:none;stroke-opacity:1" />
</svg>
